<?xml version="1.0" encoding="UTF-8" standalone="no"?>
<!DOCTYPE svg PUBLIC "-//W3C//DTD SVG 1.1//EN" "http://www.w3.org/Graphics/SVG/1.1/DTD/svg11.dtd">
<svg width="100%" height="100%" viewBox="0 0 1122 1265" version="1.1" xmlns="http://www.w3.org/2000/svg" xmlns:xlink="http://www.w3.org/1999/xlink" xml:space="preserve" xmlns:serif="http://www.serif.com/" style="fill-rule:evenodd;clip-rule:evenodd;">
    <g transform="matrix(1,0,0,1,-1639,-395.906)">
        <g id="Vector-3.svg" serif:id="Vector 3.svg" transform="matrix(1.41993,0.156859,-0.156859,1.41993,2199.74,1028.01)">
            <g transform="matrix(1,0,0,1,-350,-406.5)">
                <clipPath id="_clip1">
                    <rect x="0" y="0" width="700" height="813"/>
                </clipPath>
                <g clip-path="url(#_clip1)">
                    <path d="M244.967,101.842C298.947,-19.383 486.234,-17.376 585.774,55.112C794.975,207.459 641.079,331.898 637.969,403.696C634.983,472.639 714.388,557.65 670.06,667.295C625.732,776.94 509.194,894.148 135.988,716.097C-40.205,632.038 -13.61,513.03 69.31,474.205C162.271,447.249 182.977,388.247 206.489,333.959C230,279.671 182.619,241.861 244.967,101.842Z" style="fill:none;fill-rule:nonzero;stroke:rgb(199,221,255);stroke-width:9px;stroke-dasharray:18,18;"/>
                </g>
            </g>
        </g>
        <g transform="matrix(0.993954,0.109801,-0.109801,0.993954,107.09,-185.725)">
            <path d="M1845.86,1299.18C1845.86,1299.18 1705.21,1167.1 1911.84,1062.67C2043.43,996.169 2032.85,888.187 2033.29,806.088C2033.72,723.989 2027.25,496.443 2282.75,482.335C2538.25,468.226 2632.94,694.002 2626.64,772.254C2620.34,850.507 2526.38,904.819 2604.61,1092.32C2638.57,1173.71 2639.02,1293.48 2582.79,1360.44C2526.56,1427.41 2461.35,1496.89 2261.44,1464.24C2061.53,1431.59 1923.32,1368.05 1845.86,1299.18Z" style="fill:rgb(199,221,255);"/>
        </g>
    </g>
</svg>
